<?xml version="1.0" standalone="no"?>
<!DOCTYPE svg PUBLIC "-//W3C//DTD SVG 20010904//EN" "http://www.w3.org/TR/2001/REC-SVG-20010904/DTD/svg10.dtd">
<!-- Created using Krita: https://krita.org -->
<svg xmlns="http://www.w3.org/2000/svg" 
    xmlns:xlink="http://www.w3.org/1999/xlink"
    xmlns:krita="http://krita.org/namespaces/svg/krita"
    xmlns:sodipodi="http://sodipodi.sourceforge.net/DTD/sodipodi-0.dtd"
    width="11.52pt"
    height="11.52pt"
    viewBox="0 0 11.52 11.52">
<defs/>
<path id="shape0" transform="matrix(0.72 0 0 0.72 0.72 3.6)" fill="#ffbd00" stroke-opacity="0" stroke="#000000" stroke-width="0" stroke-linecap="square" stroke-linejoin="bevel" d="M0 10L0 7C0 6.5 0.5 6 1 6L2 6L2 5C2 4.5 2.5 4 3 4L4 4C4.5 4 5 4.5 5 5L5 6L7 6L7 0L9 0L9 6L13 6C13.5 6 14 6.5 14 7L14 10Z" sodipodi:nodetypes="ccccccccccccccccc"/><circle id="shape1" transform="matrix(0.72 0 0 0.72 4.32 0.72)" r="3" cx="3" cy="3" fill="#ffbd00" stroke-opacity="0" stroke="#000000" stroke-width="0" stroke-linecap="square" stroke-linejoin="bevel"/>
</svg>
