<?xml version="1.0" standalone="no"?>
<!DOCTYPE svg PUBLIC "-//W3C//DTD SVG 20010904//EN" "http://www.w3.org/TR/2001/REC-SVG-20010904/DTD/svg10.dtd">
<!-- Created using Krita: https://krita.org -->
<svg xmlns="http://www.w3.org/2000/svg" 
    xmlns:xlink="http://www.w3.org/1999/xlink"
    xmlns:krita="http://krita.org/namespaces/svg/krita"
    xmlns:sodipodi="http://sodipodi.sourceforge.net/DTD/sodipodi-0.dtd"
    width="11.52pt"
    height="11.52pt"
    viewBox="0 0 11.52 11.52">
<defs/>
<path id="shape0" transform="matrix(0.72 0 0 0.72 1.44 1.44)" fill="#ffbd00" stroke-opacity="0" stroke="#000000" stroke-width="0" stroke-linecap="square" stroke-linejoin="bevel" d="M2 0C1.73489 0 1.48036 0.105429 1.29289 0.292893C1.10543 0.480358 1 0.734885 1 1C1 1.26511 1.10543 1.51964 1.29289 1.70711C1.48036 1.89457 1.73489 2 2 2C4.12092 2 6.15714 2.84343 7.65685 4.34315C9.15657 5.84286 10 7.87908 10 10C10 10.2651 10.1054 10.5196 10.2929 10.7071C10.4804 10.8946 10.7349 11 11 11C11.2651 11 11.5196 10.8946 11.7071 10.7071C11.8946 10.5196 12 10.2651 12 10C12 7.34885 10.9457 4.80358 9.07107 2.92893C7.19642 1.05429 4.65115 0 2 0ZM2 4C1.73489 4 1.48036 4.10543 1.29289 4.29289C1.10543 4.48036 1 4.73489 1 5C1 5.26511 1.10543 5.51964 1.29289 5.70711C1.48036 5.89457 1.73489 6 2 6C3.06046 6 4.07857 6.42172 4.82843 7.17157C5.57828 7.92143 6 8.93954 6 10C6 10.2651 6.10543 10.5196 6.29289 10.7071C6.48036 10.8946 6.73489 11 7 11C7.26511 11 7.51964 10.8946 7.70711 10.7071C7.89457 10.5196 8 10.2651 8 10C8 8.40931 7.36743 6.88215 6.24264 5.75736C5.11785 4.63257 3.59069 4 2 4ZM2 8C1.46977 8 0.960715 8.21086 0.585786 8.58579C0.210858 8.96072 0 9.46977 0 10C0 10.5302 0.210858 11.0393 0.585786 11.4142C0.960715 11.7891 1.46977 12 2 12C2.53023 12 3.03928 11.7891 3.41421 11.4142C3.78914 11.0393 4 10.5302 4 10C4 9.46977 3.78914 8.96072 3.41421 8.58579C3.03928 8.21086 2.53023 8 2 8Z" sodipodi:nodetypes="ccccccccccccccccccccccccccccccccccc"/>
</svg>
