<?xml version="1.0" encoding="UTF-8" standalone="no"?>
<svg
   width="16"
   height="16"
   version="1.1"
   id="svg1"
   sodipodi:docname="GuiVisibilityVisible.svg"
   inkscape:version="1.4.2 (f4327f4, 2025-05-13)"
   xmlns:inkscape="http://www.inkscape.org/namespaces/inkscape"
   xmlns:sodipodi="http://sodipodi.sourceforge.net/DTD/sodipodi-0.dtd"
   xmlns="http://www.w3.org/2000/svg"
   xmlns:svg="http://www.w3.org/2000/svg">
  <defs
     id="defs1" />
  <sodipodi:namedview
     id="namedview1"
     pagecolor="#ffffff"
     bordercolor="#000000"
     borderopacity="0.25"
     inkscape:showpageshadow="2"
     inkscape:pageopacity="0.0"
     inkscape:pagecheckerboard="0"
     inkscape:deskcolor="#d1d1d1"
     inkscape:zoom="35.664698"
     inkscape:cx="9.4631391"
     inkscape:cy="8.3976597"
     inkscape:window-width="1920"
     inkscape:window-height="1009"
     inkscape:window-x="-8"
     inkscape:window-y="-8"
     inkscape:window-maximized="1"
     inkscape:current-layer="svg1" />
  <path
     fill="#e0e0e0"
     d="M8 2C5.443 2 2.209 3.948 1.045 7.705a1 1 0 0 0 0 .55C2.163 12.211 5.5 14 8 14s5.836-1.789 6.961-5.725a1 1 0 0 0 0-.55C13.861 3.935 10.554 2 8 2zm0 2a4 4 0 0 1 0 8 4 4 0 0 1 0-8zm0 2a2 2 0 0 0 0 4 2 2 0 0 0 0-4z"
     id="path1"
     style="fill:#fc7f7f;fill-opacity:1" />
</svg>
