<?xml version="1.0" encoding="UTF-8" standalone="no"?>
<svg
   width="16"
   height="16"
   version="1.1"
   id="svg1"
   sodipodi:docname="folder_additional.svg"
   inkscape:version="1.4.2 (f4327f4, 2025-05-13)"
   xmlns:inkscape="http://www.inkscape.org/namespaces/inkscape"
   xmlns:sodipodi="http://sodipodi.sourceforge.net/DTD/sodipodi-0.dtd"
   xmlns="http://www.w3.org/2000/svg"
   xmlns:svg="http://www.w3.org/2000/svg">
  <defs
     id="defs1" />
  <sodipodi:namedview
     id="namedview1"
     pagecolor="#ffffff"
     bordercolor="#000000"
     borderopacity="0.25"
     inkscape:showpageshadow="2"
     inkscape:pageopacity="0.0"
     inkscape:pagecheckerboard="0"
     inkscape:deskcolor="#d1d1d1"
     inkscape:zoom="51.8125"
     inkscape:cx="6.4366707"
     inkscape:cy="8.2895054"
     inkscape:window-width="1920"
     inkscape:window-height="1009"
     inkscape:window-x="-8"
     inkscape:window-y="-8"
     inkscape:window-maximized="1"
     inkscape:current-layer="svg1" />
  <path
     d="M 2,2 A 1,1 0 0 0 1,3 v 10 a 1,1 0 0 0 1,1 h 12 a 1,1 0 0 0 1,-1 V 6 A 1,1 0 0 0 14,5 H 10 A 1,1 0 0 1 9,4 V 3 A 1,1 0 0 0 8,2 Z M 7.3007812,5.3261719 H 8.1992188 C 8.3654188,5.3261719 8.5,5.4607531 8.5,5.6269531 v 2.4492188 h 2.449219 c 0.1662,0 0.300781,0.1345812 0.300781,0.3007812 v 0.9003907 c 0,0.1662 -0.134581,0.2988281 -0.300781,0.2988281 H 8.5 v 2.4511721 c 0,0.1662 -0.1345812,0.298828 -0.3007812,0.298828 H 7.3007812 C 7.1345812,12.326172 7,12.193544 7,12.027344 V 9.5761719 H 4.5507812 C 4.3845812,9.5761719 4.25,9.4435438 4.25,9.2773438 V 8.3769531 c 0,-0.1662 0.1345812,-0.3007812 0.3007812,-0.3007812 H 7 V 5.6269531 c 0,-0.1662 0.1345812,-0.3007812 0.3007812,-0.3007812 z"
     style="fill:#e0e0e0"
     id="path6" />
  <g
     id="g3"
     style="display:none;mix-blend-mode:normal"
     transform="translate(0,0.327)" />
</svg>
