<?xml version="1.0" encoding="UTF-8" standalone="no"?>
<svg
   width="16"
   height="16"
   version="1.1"
   id="svg2"
   sodipodi:docname="FrameAspectRatioContainer.svg"
   inkscape:version="1.4.2 (f4327f4, 2025-05-13)"
   xmlns:inkscape="http://www.inkscape.org/namespaces/inkscape"
   xmlns:sodipodi="http://sodipodi.sourceforge.net/DTD/sodipodi-0.dtd"
   xmlns:xlink="http://www.w3.org/1999/xlink"
   xmlns="http://www.w3.org/2000/svg"
   xmlns:svg="http://www.w3.org/2000/svg">
  <defs
     id="defs2">
    <linearGradient
       id="swatch8"
       inkscape:swatch="solid">
      <stop
         style="stop-color:#000000;stop-opacity:1;"
         offset="0"
         id="stop9" />
    </linearGradient>
    <inkscape:path-effect
       effect="fillet_chamfer"
       id="path-effect1"
       is_visible="true"
       lpeversion="1"
       nodesatellites_param="F,0,0,1,0,0,0,1 @ F,0,0,1,0,0,0,1 @ F,0,0,1,0,0,0,1 @ F,0,0,1,0,0,0,1"
       radius="0"
       unit="px"
       method="auto"
       mode="F"
       chamfer_steps="1"
       flexible="false"
       use_knot_distance="true"
       apply_no_radius="true"
       apply_with_radius="true"
       only_selected="false"
       hide_knots="false" />
    <linearGradient
       inkscape:collect="always"
       xlink:href="#swatch8"
       id="linearGradient9"
       x1="4.420099"
       y1="7.8866969"
       x2="11.760545"
       y2="7.8866969"
       gradientUnits="userSpaceOnUse" />
  </defs>
  <sodipodi:namedview
     id="namedview2"
     pagecolor="#ffffff"
     bordercolor="#000000"
     borderopacity="0.25"
     inkscape:showpageshadow="2"
     inkscape:pageopacity="0.0"
     inkscape:pagecheckerboard="0"
     inkscape:deskcolor="#d1d1d1"
     inkscape:zoom="26.825864"
     inkscape:cx="10.064913"
     inkscape:cy="7.4741301"
     inkscape:window-width="1440"
     inkscape:window-height="829"
     inkscape:window-x="-8"
     inkscape:window-y="-8"
     inkscape:window-maximized="1"
     inkscape:current-layer="g2" />
  <g
     fill="none"
     stroke="#8eef97"
     id="g2">
    <rect
       width="12"
       height="12"
       x="2"
       y="2"
       stroke-width="2"
       rx="1"
       id="rect1"
       style="fill:none" />
    <path
       id="text1"
       style="font-size:6.67313px;text-align:start;writing-mode:lr-tb;direction:ltr;text-anchor:start;fill:#8eef97;fill-opacity:1;stroke-width:0.691486;paint-order:markers stroke fill"
       d="M 5.5234375 5.5410156 L 4.234375 6.5332031 L 4.5175781 6.9023438 L 5.0605469 6.4648438 C 5.1474366 6.3931597 5.2206463 6.3348987 5.2792969 6.2871094 C 5.3379474 6.2371478 5.4014105 6.1769336 5.46875 6.1074219 C 5.4622333 6.1877949 5.4555164 6.2675024 5.4511719 6.3457031 C 5.4489996 6.4217316 5.4474847 6.5062029 5.4453125 6.5996094 L 5.4453125 6.9277344 L 5.4453125 10.304688 L 5.9726562 10.304688 L 5.9726562 5.5410156 L 5.5234375 5.5410156 z M 11.091797 5.5410156 L 9.8027344 6.5332031 L 10.085938 6.9023438 L 10.628906 6.4648438 C 10.715796 6.3931597 10.789006 6.3348987 10.847656 6.2871094 C 10.906307 6.2371478 10.96977 6.1769336 11.037109 6.1074219 C 11.030593 6.1877949 11.025829 6.2675024 11.021484 6.3457031 C 11.019312 6.4217316 11.015844 6.5062029 11.013672 6.5996094 L 11.013672 6.9277344 L 11.013672 10.304688 L 11.541016 10.304688 L 11.541016 5.5410156 L 11.091797 5.5410156 z M 8.3164062 6.6484375 C 8.2099664 6.6484375 8.1187781 6.6809265 8.0449219 6.7460938 C 7.9710656 6.8090888 7.9355469 6.9178173 7.9355469 7.0742188 C 7.9355469 7.2219313 7.9710656 7.331098 8.0449219 7.3984375 C 8.1187781 7.465777 8.2099664 7.4980469 8.3164062 7.4980469 C 8.4271906 7.4980469 8.5196746 7.465777 8.5957031 7.3984375 C 8.6717316 7.331098 8.7109375 7.2219313 8.7109375 7.0742188 C 8.7109375 6.9178173 8.6717316 6.8090888 8.5957031 6.7460938 C 8.5196746 6.6809265 8.4271906 6.6484375 8.3164062 6.6484375 z M 8.3164062 9.5449219 C 8.2099664 9.5449219 8.1187781 9.5774108 8.0449219 9.6425781 C 7.9710656 9.7055732 7.9355469 9.8127868 7.9355469 9.9648438 C 7.9355469 10.114729 7.9710656 10.22541 8.0449219 10.294922 C 8.1187781 10.362261 8.2099664 10.394531 8.3164062 10.394531 C 8.4271906 10.394531 8.5196746 10.362261 8.5957031 10.294922 C 8.6717316 10.22541 8.7109375 10.114729 8.7109375 9.9648438 C 8.7109375 9.8127868 8.6717316 9.7055732 8.5957031 9.6425781 C 8.5196746 9.5774108 8.4271906 9.5449219 8.3164062 9.5449219 z " />
  </g>
</svg>
