<?xml version="1.0" encoding="UTF-8" standalone="no"?>
<svg
   width="16"
   height="16"
   version="1.1"
   id="svg1"
   sodipodi:docname="CharacterBody3D.svg"
   inkscape:version="1.4.2 (f4327f4, 2025-05-13)"
   xmlns:inkscape="http://www.inkscape.org/namespaces/inkscape"
   xmlns:sodipodi="http://sodipodi.sourceforge.net/DTD/sodipodi-0.dtd"
   xmlns="http://www.w3.org/2000/svg"
   xmlns:svg="http://www.w3.org/2000/svg">
  <defs
     id="defs1" />
  <sodipodi:namedview
     id="namedview1"
     pagecolor="#ffffff"
     bordercolor="#000000"
     borderopacity="0.25"
     inkscape:showpageshadow="2"
     inkscape:pageopacity="0.0"
     inkscape:pagecheckerboard="0"
     inkscape:deskcolor="#d1d1d1"
     inkscape:zoom="25.90625"
     inkscape:cx="7.0253317"
     inkscape:cy="7.6236429"
     inkscape:window-width="1920"
     inkscape:window-height="1009"
     inkscape:window-x="-8"
     inkscape:window-y="-8"
     inkscape:window-maximized="1"
     inkscape:current-layer="svg1" />
  <path
     fill="#fc7f7f"
     d="M 9.3810742,4.636504 A 0.73969415,0.73970337 0 0 1 10.120766,5.3762074 V 7.5953177 A 0.73969415,0.73970337 0 0 1 9.3810742,8.3350208 H 8.6413803 v 0.7323065 a 0.73969415,0.73970337 0 0 1 0.2337433,0.045855 l 1.5171134,0.50596 0.505949,-1.5171313 a 0.73974652,0.73975576 0 0 1 1.403938,0.4667525 l -0.739691,2.2191155 a 0.73969415,0.73970337 0 0 1 -0.935714,0.468234 L 9.3810742,10.841876 v 0.45122 c 0,0.03038 -0.014056,0.05625 -0.017743,0.08578 l 3.3870498,2.257574 a 0.73978672,0.739796 0 1 1 -0.821063,1.230866 L 8.1894281,12.374536 7.0835852,14.583293 A 0.73969415,0.73970337 0 0 1 6.1885547,14.954627 L 3.9694726,14.214925 a 0.73969415,0.73970337 0 1 1 0.4674861,-1.403219 l 1.6110539,0.536287 0.721202,-1.443162 A 0.72563995,0.725649 0 0 1 6.4222982,11.293096 V 10.55413 H 5.3993013 L 4.865242,11.625222 A 0.74016828,0.74017756 0 1 1 3.5411897,10.963186 L 4.2808834,9.4837803 A 0.73969415,0.73970337 0 0 1 4.9429101,9.0747244 H 7.161992 V 8.3350208 H 6.4222982 A 0.73969415,0.73970337 0 0 1 5.6826036,7.5953177 V 5.3762074 A 0.73969415,0.73970337 0 0 1 6.4222982,4.636504 Z m 0,1.4794071 H 8.6413803 v 1.4794066 h 0.7396939 z"
     id="path1"
     style="stroke-width:0.739698" />
  <path
     fill="#fc7f7f"
     d="M 9.4124779,0.49096118 A 2.2191102,2.2191102 0 0 0 7.1933678,2.5451177 2.2191102,2.2191102 0 1 0 4.9742577,6.2784002 V 7.8879946 A 0.73970337,0.73970337 0 0 0 5.713961,8.6276984 H 10.15218 A 0.73970337,0.73970337 0 0 0 10.891882,7.8879946 V 7.1482914 l 2.219112,1.479407 V 4.1894783 L 10.891882,5.6688847 V 4.3596101 A 2.2191102,2.2191102 0 0 0 9.4124779,0.49096118 Z"
     id="path1-8"
     style="display:inline;stroke-width:0.739704" />
</svg>
