<?xml version="1.0" encoding="UTF-8" standalone="no"?>
<svg
   width="16"
   height="16"
   version="1.1"
   id="svg1"
   sodipodi:docname="group_additional.svg"
   inkscape:version="1.4.2 (f4327f4, 2025-05-13)"
   xmlns:inkscape="http://www.inkscape.org/namespaces/inkscape"
   xmlns:sodipodi="http://sodipodi.sourceforge.net/DTD/sodipodi-0.dtd"
   xmlns="http://www.w3.org/2000/svg"
   xmlns:svg="http://www.w3.org/2000/svg">
  <defs
     id="defs1" />
  <sodipodi:namedview
     id="namedview1"
     pagecolor="#ffffff"
     bordercolor="#000000"
     borderopacity="0.25"
     inkscape:showpageshadow="2"
     inkscape:pageopacity="0.0"
     inkscape:pagecheckerboard="0"
     inkscape:deskcolor="#d1d1d1"
     inkscape:zoom="12.609375"
     inkscape:cx="-16.654275"
     inkscape:cy="10.032218"
     inkscape:window-width="1920"
     inkscape:window-height="1009"
     inkscape:window-x="-8"
     inkscape:window-y="-8"
     inkscape:window-maximized="1"
     inkscape:current-layer="svg1" />
  <path
     fill="#e0e0e0"
     d="M2 2a1 1 0 0 0-1 1v10a1 1 0 0 0 1 1h12a1 1 0 0 0 1-1V6a1 1 0 0 0-1-1h-4a1 1 0 0 1-1-1V3a1 1 0 0 0-1-1z"
     id="path1"
     style="fill:#fc7f7f;fill-opacity:1" />
  <g
     id="g3"
     style="opacity:1;mix-blend-mode:normal"
     transform="translate(0,0.32684572)">
    <rect
       style="fill:#e0e0e0;stroke-width:1.34284;paint-order:markers stroke fill"
       id="rect2"
       width="1.5"
       height="7"
       x="7"
       y="5"
       ry="0.30000001" />
    <rect
       style="fill:#e0e0e0;stroke-width:1.34283;paint-order:markers stroke fill"
       id="rect3"
       width="7"
       height="1.5"
       x="4.25"
       y="7.75"
       ry="0.30000001" />
  </g>
</svg>
