<?xml version="1.0" encoding="UTF-8" standalone="no"?>
<svg
   width="16"
   height="16"
   version="1.1"
   id="svg1"
   sodipodi:docname="marker_interpolated_3d.svg"
   inkscape:version="1.4.2 (f4327f4, 2025-05-13)"
   xmlns:inkscape="http://www.inkscape.org/namespaces/inkscape"
   xmlns:sodipodi="http://sodipodi.sourceforge.net/DTD/sodipodi-0.dtd"
   xmlns="http://www.w3.org/2000/svg"
   xmlns:svg="http://www.w3.org/2000/svg">
  <defs
     id="defs1" />
  <sodipodi:namedview
     id="namedview1"
     pagecolor="#ffffff"
     bordercolor="#000000"
     borderopacity="0.25"
     inkscape:showpageshadow="2"
     inkscape:pageopacity="0.0"
     inkscape:pagecheckerboard="0"
     inkscape:deskcolor="#d1d1d1"
     inkscape:zoom="8"
     inkscape:cx="-44.875"
     inkscape:cy="-16.5625"
     inkscape:window-width="1920"
     inkscape:window-height="1009"
     inkscape:window-x="-8"
     inkscape:window-y="-8"
     inkscape:window-maximized="1"
     inkscape:current-layer="svg1" />
  <path
     fill="#fc7f7f"
     d="M 5.6666667,2.3 V 5.4111111 H 7.2222222 V 2.3 Z M 1,6.9666667 V 8.5222222 H 4.1111111 V 6.9666667 Z m 7.7777778,0 V 8.5222222 H 11.888889 V 6.9666667 Z M 5.6666667,10.077778 v 3.111111 h 1.5555555 v -3.111111 z"
     id="path1"
     style="stroke-width:0.777778" />
  <path
     fill="#fc7f7f"
     d="M 7.2222222,2.3 V 5.4111111 H 8.7777778 V 2.3 Z M 2.5555556,6.9666667 V 8.5222222 H 5.6666667 V 6.9666667 Z m 7.7777774,0 v 1.5555555 h 3.111111 V 6.9666667 Z M 7.2222222,10.077778 v 3.111111 h 1.5555556 v -3.111111 z"
     id="path2"
     style="opacity:0.66;stroke-width:0.777778" />
  <path
     fill="#fc7f7f"
     d="M 8.7777778,2.3 V 5.4111111 H 10.333333 V 2.3 Z M 4.1111111,6.9666667 V 8.5222222 H 7.2222222 V 6.9666667 Z m 7.7777779,0 V 8.5222222 H 15 V 6.9666667 Z M 8.7777778,10.077778 v 3.111111 h 1.5555552 v -3.111111 z"
     id="path3"
     style="opacity:0.33;stroke-width:0.777778" />
</svg>
