<?xml version="1.0" encoding="UTF-8" standalone="no"?>
<svg
   width="16"
   height="16"
   version="1.1"
   id="svg1"
   sodipodi:docname="ResourcePreloader.svg"
   inkscape:version="1.4.2 (f4327f4, 2025-05-13)"
   xmlns:inkscape="http://www.inkscape.org/namespaces/inkscape"
   xmlns:sodipodi="http://sodipodi.sourceforge.net/DTD/sodipodi-0.dtd"
   xmlns="http://www.w3.org/2000/svg"
   xmlns:svg="http://www.w3.org/2000/svg">
  <defs
     id="defs1" />
  <sodipodi:namedview
     id="namedview1"
     pagecolor="#ffffff"
     bordercolor="#000000"
     borderopacity="0.25"
     inkscape:showpageshadow="2"
     inkscape:pageopacity="0.0"
     inkscape:pagecheckerboard="0"
     inkscape:deskcolor="#d1d1d1"
     inkscape:zoom="16"
     inkscape:cx="0.5625"
     inkscape:cy="22.15625"
     inkscape:window-width="1920"
     inkscape:window-height="1009"
     inkscape:window-x="-8"
     inkscape:window-y="-8"
     inkscape:window-maximized="1"
     inkscape:current-layer="svg1" />
  <path
     fill="#e0e0e0"
     d="M 1.553,4.104 A 1,1 0 0 0 1,4.998 v 6 a 1,1 0 0 0 0.553,0.895 l 6,3 a 1,1 0 0 0 0.894,0 l 6,-3 A 1,1 0 0 0 15,10.998 v -6 A 1,1 0 0 0 14.447,4.104 l -6,-3 a 1,1 0 0 0 -0.894,0 z M 8,3.119 11.764,5 10.383,5.692 6.619,3.809 Z m -5,3.5 4,2 v 3.764 l -4,-2 z m 10,0 v 3.764 l -4,2 V 8.619 Z"
     id="path1"
     style="display:inline;fill:#fc7f7f;fill-opacity:1" />
</svg>
